<svg xmlns="http://www.w3.org/2000/svg" viewBox="0 0 512 512">
<path fill="#010101" d="m356.805 15.762 2.653-.025c1.854-.014 3.709-.024 5.563-.032 2.836-.017 5.67-.061 8.506-.105 1.801-.01 3.602-.019 5.403-.026l2.57-.053c3.657.014 5.882.111 9.067 2.006 2.08 3.589 2.188 6.501 1.433 10.473-1.387 3.983-3.179 7.737-4.996 11.54-1.046 2.296-2.09 4.594-3.131 6.894a739.604 739.604 0 0 1-4.97 10.671C369.96 75.953 367.18 91.433 368 112l3.162-.027c9.83-.081 19.658-.14 29.487-.18 5.054-.021 10.107-.05 15.16-.095 4.876-.043 9.752-.067 14.628-.078 1.861-.007 3.723-.021 5.584-.043 2.605-.029 5.209-.033 7.814-.031l2.337-.044c3.491.027 5.445.209 8.27 2.343 1.982 2.742 2.674 5.168 3.48 8.452l.918 3.652.91 3.801.957 3.848c.777 3.13 1.54 6.265 2.293 9.402l2.599.028c3.19.044 6.38.106 9.571.18 1.38.028 2.759.049 4.138.063 1.986.021 3.972.07 5.958.12l3.618.063c3.116.546 3.116.546 5.504 2.022 2.404 3.765 2.185 7.14 2.143 11.524l.012 2.645c.003 1.842-.005 3.684-.022 5.527a506.8 506.8 0 0 0 .026 8.453c-.003 1.792-.008 3.583-.016 5.375l.025 2.55c-.06 3.687-.163 5.837-2.182 8.988-3.136 1.931-5.218 1.92-8.89 1.853l-3.415-.03-4.319-.111c-2.382-.045-4.763-.09-7.145-.132l-3.749-.067L464 192l-.143 2.318a3450.574 3450.574 0 0 1-4.248 59.696c-.24 3.018-.478 6.036-.716 9.054-.56 7.11-1.124 14.22-1.689 21.328-.58 7.304-1.156 14.608-1.731 21.912-.498 6.33-.999 12.662-1.5 18.993-.299 3.756-.596 7.513-.891 11.27-.327 4.16-.659 8.32-.99 12.48l-.292 3.726c-.09 1.133-.182 2.266-.276 3.433l-.235 2.967c-.304 2.97-.769 5.885-1.289 8.823l3.792-.063c4.644-.073 9.288-.119 13.933-.157 2.01-.02 4.02-.047 6.029-.082 2.89-.048 5.778-.071 8.668-.089l2.721-.062 2.547-.001 2.234-.027c2.99.693 4.132 2.148 6.076 4.481.503 2.355.503 2.355.508 5.01l.034 3.059-.024 3.337.02 3.53c.018 3.854.007 7.709-.007 11.564l.012 8.025c.007 5.61-.002 11.218-.022 16.827-.021 6.482-.014 12.964.008 19.447.018 5.568.02 11.135.01 16.703-.006 3.325-.005 6.65.006 9.974.01 3.706-.005 7.412-.027 11.118l.024 3.337-.034 3.06-.005 2.654c-.698 3.267-1.875 4.307-4.503 6.355-3.254.504-3.254.504-7.208.509l-2.214.02c-2.462.016-4.923.004-7.385-.008-1.778.006-3.555.014-5.333.024-4.895.02-9.79.016-14.686.007-5.275-.005-10.55.013-15.826.028-10.341.026-20.682.03-31.024.025-8.406-.004-16.812 0-25.218.008l-3.622.004-7.284.007c-22.789.022-45.578.017-68.367.005-20.847-.01-41.694.012-62.54.05-21.4.04-42.8.056-64.198.048-12.017-.004-24.033.001-36.05.03-10.233.023-20.466.026-30.7.002-5.22-.012-10.44-.014-15.661.01-4.783.022-9.565.016-14.348-.012-1.727-.006-3.454-.001-5.18.015-13.71.118-22.965-3.02-33.148-12.565C33.46 474.811 31.635 465.353 32 453l-2.313-.875c-6.836-2.862-9.588-7.166-12.707-13.625-3.264-8.324-2.352-16.38 1.02-24.5 3.892-6.96 9.182-11.518 16.827-13.87l2.943-.767 2.975-.784L43 398a6780.3 6780.3 0 0 0-4.044-32.598c-.637-5.044-1.267-10.089-1.88-15.136-.59-4.872-1.201-9.74-1.828-14.608a686.019 686.019 0 0 1-.682-5.573 619.5 619.5 0 0 0-.989-7.806l-.257-2.326C32.594 314.74 30.996 312.35 27 309c-9.26-10.203-11.892-20.146-11.395-33.664.425-6.184 1.9-12.359 5.95-17.191 4.224-6.27.9-17.478-.086-24.512l-.957-7.121c-.505-3.695-1.012-7.39-1.521-11.085-.493-3.597-.977-7.196-1.46-10.794l-.464-3.297c-2.585-19.33-2.585-19.33.705-23.677C20 176 20 176 24 176l.688-3.875c3.09-13.527 11.674-23.083 22.953-30.75C50 140 50 140 52.648 139.281c2.713-1.154 2.713-1.154 3.688-4.625.36-1.382.706-2.767 1.039-4.156 3.436-12.442 11.088-22.76 22.324-29.371 5.85-2.87 12.059-5.202 18.614-5.317 4.951-1.09 6.09-3.386 8.93-7.402 5.897-8.087 15.326-13.993 25.195-15.875l2.062-.285c3.535-.861 3.535-.861 4.777-3.234a242.691 242.691 0 0 0 2.332-5.223c5.105-10.252 15.31-18.01 25.766-22.23C179.481 37.949 194.67 38.224 206 44c3.568 2.086 6.8 4.386 10 7l1.93 1.55c4.028 3.608 5.95 7.224 8.195 12.138 1.943 3.816 2.982 5.852 6.82 7.828 2.22.619 4.458 1.18 6.707 1.683C248.754 76.376 256.117 81.85 262 89l1.75 3.375c3.187 3.718 6.103 3.376 10.82 3.953 7.831 1.534 15.778 5.539 21.055 11.547 5.186 5.151 13.446 4.085 20.281 4.152 1.365-.004 2.73-.012 4.094-.027l-.365-2.448c-2.917-23.204 2.217-41.262 11.678-62.49l.814-1.832c13.1-29.368 13.1-29.368 24.678-29.468Z"/>
<path fill="#F3F3F3" d="M144 384h336v96c-33.944.161-33.944.161-48.148.195-9.815.024-19.63.052-29.445.107-7.147.04-14.295.065-21.442.074-3.785.006-7.57.018-11.355.047-3.563.027-7.125.035-10.687.03-1.932.001-3.863.023-5.795.045l-3.484-.017-3.028.011c-3.34-.628-4.495-1.896-6.616-4.492-1.125-2.119-1.125-2.119-2-4.371l-1-2.49-1-2.577c-3.2-8.205-6.133-14.39-14.242-18.605-6.29-2.183-13.096-2.07-19.445-.14-10.034 4.864-13.346 15.138-17.016 24.925C284 476 284 476 282 479c-3.105 1.035-5.231 1.123-8.486 1.12l-3.455.004-3.792-.01h-3.992c-3.613 0-7.226-.006-10.84-.013-3.775-.006-7.55-.006-11.327-.008-7.15-.003-14.3-.01-21.45-.021-9.663-.013-19.324-.019-28.986-.024-15.224-.01-30.448-.03-45.672-.048v-96Z"/>
<path fill="#4196CF" d="M351 192h96c0 6.13-.144 12.056-.655 18.138l-.212 2.637c-.233 2.875-.47 5.75-.707 8.623l-.498 6.147c-.352 4.353-.707 8.706-1.063 13.058-.926 11.332-1.839 22.665-2.752 33.999-.09 1.128-.182 2.256-.276 3.419C438.421 308.004 436.202 338 434 368H328c.804-8.84 1.74-17.63 2.813-26.438l.263-2.18c1.33-10.951 2.822-21.87 4.423-32.785 1.303-8.975 2.43-17.966 3.501-26.972 1.533-12.88 3.184-25.74 4.922-38.594.821-6.08 1.618-12.164 2.406-18.25l.684-5.263c.336-2.59.672-5.179 1.005-7.769.308-2.4.62-4.799.932-7.198l.278-2.183c.383-2.925.837-5.56 1.773-8.368Z"/>
<path fill="#F9D593" d="M200.379 60.297c9.114 5.922 13.176 13.688 16.762 23.77.695 2.116.695 2.116 2.859 2.933 1.998.267 3.998.514 6 .75 11.769 1.758 18.896 6.854 26 16.25a744.352 744.352 0 0 1 4 6c1.694 1.694 3.893 1.3 6.168 1.493 10.458.95 19.543 3.512 26.894 11.507 5.511 6.731 6.479 13.059 7.215 21.54.815 3.903 1.542 5.13 4.723 7.46 2.519 1.108 2.519 1.108 5.25 1.875 9.198 3.172 15.34 8.352 19.75 17.125l1 5h-43l3-10c1.007-8.136.284-14.968-4-22l-1.285-2.152c-4.664-6.977-11.44-10.91-19.633-12.559-10.158-1.41-19.196.733-27.52 7.024-5.994 6.287-9.573 13.044-9.875 21.812.185 6.982.185 6.982 3.313 17.875h-50l4-11 1.375-4.938c1.435-4.398 3.614-5.736 7.625-8.062 6.169-6.169 8.115-12.267 8.2-20.985-.018-3.007-.093-6.01-.2-9.015 3.68-1.84 7.975-1.378 12-1 2.03.94 4.039 1.926 6 3 3.542-.366 5.296-1.89 7.75-4.375l1.86-1.836c1.697-1.806 1.697-1.806 1.39-4.789-1.557-1.407-1.557-1.407-3.625-2.563l-2.04-1.253c-7.79-3.948-16.619-4.579-25.105-2.508a76.325 76.325 0 0 0-4.363 1.668c-2.81.987-5.118.988-7.84-.219l-2.09-1.125c-6.741-3.11-13.536-2.89-20.625-.938-5.728 2.17-10.834 6.108-13.687 11.57C147 120 147 120 144.398 120.97l-3.023.531c-9.177 1.993-16.556 5.987-22.375 13.5-5.462 9.042-7.685 18.266-5.398 28.762 1.242 4.197 2.77 8.168 4.398 12.238H41c2.744-9.604 7.165-15.515 15.656-20.793 3.04-1.565 6.098-2.6 9.399-3.469 2.363-.896 3.452-1.693 4.945-3.738.432-2.433.432-2.433.438-5.125.61-8.9 4.408-16.422 10.562-22.875 8.214-6.65 15.302-8.217 25.758-8.363 3.398-.35 3.398-.35 5.558-3 1.171-1.834 2.336-3.672 3.496-5.512C121.27 96.758 126.439 91.372 134 89a163.624 163.624 0 0 1 10.926-1.508c3.236-.3 3.236-.3 6.074-2.492.988-2.57.988-2.57 1.75-5.563 2.93-9.232 7.849-15.034 15.941-20.246 10.634-5.487 21.407-4.54 31.688 1.106Z"/>
<path fill="#E9E9E9" d="M279 192h56c-3.47 31.236-3.47 31.236-5.25 44.5l-.63 4.747a5199.797 5199.797 0 0 1-3.788 27.839l-.436 3.152-.441 3.188-.445 3.217-.894 6.458c-2.551 18.437-4.917 36.893-7.163 55.37l-.354 2.894c-.215 1.753-.427 3.506-.636 5.26-.798 6.51-1.881 12.886-2.963 19.375h-46c0-18.378 0-18.378.67-26.063.073-.884.144-1.768.218-2.678.234-2.872.478-5.743.721-8.614a7978.668 7978.668 0 0 1 1.582-19.146c.843-10.069 1.667-20.139 2.493-30.209l.817-9.928a6041.226 6041.226 0 0 0 4.395-56.837 2119.424 2119.424 0 0 0 .586-8.065l.164-2.258.136-1.894c.325-3.445.789-6.875 1.218-10.308Z"/>
<path fill="#C84435" d="M192 192h71c-1.149 22.975-1.149 22.975-1.892 32.392l-.252 3.277c-.27 3.502-.543 7.005-.817 10.507l-.58 7.503c-.506 6.553-1.015 13.105-1.525 19.658-.508 6.54-1.014 13.081-1.52 19.622-.778 10.059-1.558 20.118-2.339 30.176A64044.72 64044.72 0 0 0 250 368h-58v-17l5.25-1.188c15.071-3.816 27.927-10.627 36.223-24.226 5.435-10.237 7.58-21.592 4.652-32.992-4.59-12.925-12.886-22.555-25.063-28.844-6.998-3.31-13.422-5.477-21.062-6.75v-65Z"/>
<path fill="#E9E9E9" d="M105 192h71v65l-16 4c-13.82 6.322-24.274 16.058-29.938 30.375-3.282 11.416-1.013 24.261 4.598 34.594 8.021 12.16 20.057 20.323 34.188 23.715 2.375.484 4.763.906 7.152 1.316v17l-3.884.028c-4.756.04-9.512.106-14.268.18-2.058.028-4.116.049-6.175.063-2.959.021-5.917.068-8.876.12l-2.788.003-2.608.06-2.288.027c-3.235.795-4.235 1.735-6.113 4.519-.606 3.421-.564 6.81-.546 10.276l-.031 3.165c-.03 3.452-.031 6.904-.032 10.356a4148.804 4148.804 0 0 0-.129 26.079c-.02 6.428-.062 12.856-.102 19.284-.075 12.613-.126 25.227-.16 37.84h-1l-.219-2.876c-3.736-49.126-7.556-98.243-11.59-147.345-.534-6.49-1.065-12.982-1.595-19.473-.34-4.184-.683-8.367-1.028-12.55-.36-4.37-.715-8.739-1.068-13.108-.133-1.643-.268-3.285-.404-4.928-.684-8.254-1.267-16.43-1.096-24.72l3.77-1.25c9.922-3.4 18.287-6.722 26.23-13.75l2.145-1.887c3.636-3.414 4.908-5.246 6.855-10.113l-10-7c-3.947 1.71-3.947 1.71-6.25 4.25-6.692 6.692-13.797 10.637-22.75 13.75h-2c-.43-5.568-.858-11.137-1.282-16.705-.144-1.893-.29-3.785-.436-5.677-.211-2.728-.419-5.456-.626-8.184l-.199-2.542-.182-2.425-.161-2.107c-.15-3.116-.114-6.24-.114-9.36Z"/>
<path fill="#010101" d="m368.407 399.725 2.17-.015c2.355-.014 4.71-.013 7.064-.01l4.947-.014c3.453-.007 6.906-.007 10.359-.002 4.402.006 8.804-.01 13.206-.034 3.406-.015 6.812-.016 10.218-.013 1.622 0 3.244-.005 4.865-.015 12.551-.07 23.95.673 33.764 9.378 6.782 7.96 9.558 15.083 9.379 25.547-.838 7.638-4.146 15.274-9.434 20.922-7.15 5.628-15.22 8.673-24.211 8.708l-2.233.02c-2.44.02-4.881.031-7.321.041l-2.532.013c-4.426.02-8.852.035-13.278.044-4.556.011-9.112.046-13.668.085-3.515.027-7.031.035-10.547.038a613.77 613.77 0 0 0-5.035.035c-16.724.174-16.724.174-24.12-4.453l-2.418-1.352c-7.123-5.126-11.24-12.25-13.582-20.648-.88-8.16-.302-14.95 4-22l1.285-2.117c6.469-9.55 15.69-14.117 27.122-14.158Z"/>
<path fill="#010102" d="m192.407 399.725 2.17-.015c2.355-.014 4.71-.013 7.064-.01l4.947-.014c3.453-.007 6.906-.007 10.359-.002 4.402.006 8.804-.01 13.206-.034 3.406-.015 6.812-.016 10.218-.013 1.622 0 3.244-.005 4.865-.015 12.551-.07 23.95.673 33.764 9.378 6.782 7.96 9.558 15.083 9.379 25.547-.838 7.638-4.146 15.274-9.434 20.922-7.15 5.628-15.22 8.673-24.211 8.708l-2.233.02c-2.44.02-4.881.031-7.321.041l-2.532.013c-4.426.02-8.852.035-13.278.044-4.556.011-9.112.046-13.668.085-3.515.027-7.031.035-10.547.038a613.77 613.77 0 0 0-5.035.035c-16.724.174-16.724.174-24.12-4.453l-2.418-1.352c-7.123-5.126-11.24-12.25-13.582-20.648-.88-8.16-.302-14.95 4-22l1.285-2.117c6.469-9.55 15.69-14.117 27.122-14.158Z"/>
<path fill="#030201" d="M66.512 20.688C72.66 25.32 72.66 25.32 74 28l1.738-.438c16.455-3.595 33.737-3.094 48.325 5.938 3.45 2.34 6.703 4.871 9.937 7.5-1.536 3.68-3.782 5.988-6.625 8.75l-2.477 2.422L123 54c-3.059-1.456-5.842-3.167-8.688-5-4.754-2.897-8.838-4.117-14.312-5l1.438 2.25c3.76 6.618 3.209 14.362 2.562 21.75-2.114 7.49-6.676 12.634-13 17-7.412 4.118-15.62 4.923-23.813 2.875-2.466-.987-4.166-2.296-6.25-3.938-4.16-3.03-7.857-3.433-12.874-3.562-9.162-.236-16.673-2.128-23.465-8.566-7.173-8.12-9.936-16.917-9.473-27.73 1.217-8.977 5.233-16.217 12.188-22.017 11.352-7.995 27.405-9.298 39.199-1.375Z"/>
<path fill="#C64435" d="M95 288h1c2.19 11.966 2.974 24.025 3.875 36.14l.515 6.76c.45 5.915.896 11.83 1.34 17.746.446 5.941.897 11.882 1.348 17.823a26379.912 26379.912 0 0 1 1.992 26.352l.227 3.016c.403 5.328.823 10.655 1.265 15.981l.28 3.41c.178 2.147.359 4.293.542 6.439.452 5.468.708 10.846.616 16.333l-1.563-2-2.437-3-1.508-1.938C98.288 425.9 94.01 422.836 88 420c-.615-6.885.78-10.567 5-16 2.188-2.5 2.188-2.5 4-4h2l-1.313-2.773L96 393.625l-1.688-3.586C93 387 93 387 93 385c-12.78 8.14-17.154 16.567-21 31-3.476-.595-3.858-.802-6.063-3.875L64 409l-1.543-1.271c-2.21-2.622-2.246-5.149-2.703-8.518l-.29-2.07c-.314-2.254-.608-4.51-.901-6.766l-.644-4.722C54.957 363.81 52.343 341.916 50 320l3.148-.297c13.502-1.394 25.082-4.342 34.04-15.328C90.739 299.373 92.849 293.71 95 288Z"/>
<path fill="#FAB42E" d="M212.883 281.152c5.352 3.937 9.046 10.634 11.117 16.848 1.105 10.374-1.49 16.785-7.188 25.25-9.812 9.594-22.535 13.037-35.94 13.067-6.287-.123-11.267-1.57-16.872-4.317l-2.652-1.285c-7.653-4.132-11.952-9.62-16.286-17.027-2.26-7.843-1.99-14.547 1.438-22 5.947-10.584 15.104-15.587 26.477-19.34 14.702-2.526 27.462 1.188 39.906 8.804Z"/>
<path fill="#F65441" d="m369.833 415.839 2.13-.015c2.33-.015 4.66-.022 6.99-.027l4.858-.017c3.4-.01 6.8-.017 10.2-.02 4.348-.006 8.697-.03 13.046-.058 3.347-.019 6.695-.024 10.042-.026 1.603-.003 3.206-.01 4.808-.024a642.02 642.02 0 0 1 6.742-.008l3.872-.011c4.448.47 7.836 1.833 11.124 4.902 4.353 5.693 5.145 9.337 4.355 16.465-2.212 4.425-4.948 7.195-9 10-3.492 1.164-6.261 1.148-9.947 1.177l-2.13.02c-2.324.02-4.649.031-6.974.041l-2.41.013c-4.208.02-8.416.035-12.625.044-4.34.011-8.682.046-13.023.085-3.343.027-6.686.035-10.03.038-1.6.005-3.2.017-4.799.035-2.243.025-4.484.024-6.727.017l-3.862.018c-5.277-.741-8.323-3.182-11.785-7.113-3.309-4.656-3.309-8.77-2.688-14.375 4.003-8.007 9.203-11.115 17.833-11.161Z"/>
<path fill="#68B7E5" d="m193.833 415.839 2.13-.015c2.33-.015 4.66-.022 6.99-.027l4.858-.017c3.4-.01 6.8-.017 10.2-.02 4.348-.006 8.697-.03 13.046-.058 3.347-.019 6.695-.024 10.042-.026 1.603-.003 3.206-.01 4.808-.024a642.02 642.02 0 0 1 6.742-.008l3.872-.011c4.448.47 7.836 1.833 11.124 4.902 4.189 5.478 4.977 8.651 4.355 15.465-1.825 5.273-4.607 7.797-9 11-3.492 1.164-6.261 1.148-9.947 1.177l-2.13.02c-2.324.02-4.649.031-6.974.041l-2.41.013c-4.208.02-8.416.035-12.625.044-4.34.011-8.682.046-13.023.085-3.343.027-6.686.035-10.03.038-1.6.005-3.2.017-4.799.035-2.243.025-4.484.024-6.727.017l-3.862.018c-5.25-.738-8.295-3.182-11.785-7.05-3.145-4.542-3.348-9.082-2.688-14.438 4.073-7.995 9.164-11.115 17.833-11.161Z"/>
<path fill="#F8B64C" d="M50.25 417.063c3.573 2.517 4.279 4.874 5.75 8.937 1.732 3.198 1.732 3.198 4 6 1.876-.042 3.751-.09 5.625-.168 9.403-.334 16.293.448 23.46 7.106 5.774 6.22 7.463 11.462 7.286 19.925-.708 5.983-2.976 10.81-7.308 15.02C81.758 479.609 75.198 480.934 66 480c-6.62-1.767-11.244-6.419-15-12-2.912-5.51-3.322-9.592-3-15.75.488-5.298.488-5.298-1.219-10.14-2.039-1.27-4.05-2.217-6.281-3.11-3.142-1.257-5.335-2.36-7.5-5-1.206-3.62-1.323-6.192-1-10 1.628-3.082 3.03-5.264 5.813-7.375 4.426-1.265 8.09-.984 12.437.438Z"/>
<path fill="#F8B64B" d="M79 233c3.148 1.3 4.637 2.589 6.875 5.125 1.626 4.156 1.267 7.6.125 11.875-2.4 3.941-5.041 5.753-9 8-1.454 2.907-1.296 4.74-1 8a90.976 90.976 0 0 0 2 4.25c2.768 5.923 3.2 11.153 1.117 17.395-3.279 7.242-7.573 11.31-14.367 15.23-6.3 1.89-12.776 2.331-18.938-.313-5.933-3.45-10.583-8.745-13.312-15-1.127-8.026-1.515-14.79 3.5-21.562 6.288-6.793 13.022-9.878 22.082-11.375 2.303-.531 2.303-.531 3.918-3.625.31-2.573.31-2.573.375-5.375.35-4.735.996-7.316 4.625-10.625 4.049-2.7 7.25-2.535 12-2Z"/><path fill="#E3E3E1" d="M338 160h142v16H343c-4-12-4-12-5-16Z"/><path fill="#EAEAEA" d="M309 128h133l4 16c-16.125.14-32.25.246-48.376.31-7.488.032-14.976.074-22.464.143-6.53.06-13.06.098-19.59.112-3.455.007-6.909.026-10.363.07-3.866.048-7.731.049-11.597.046l-3.433.066c-6.65-.052-11.414-1.282-17.238-4.482C311 138 311 138 309 128Z"/><path fill="#F7B54B" d="M175 120c4.09 1.807 6.662 4.19 9 8 .476 3.808.365 6.173-1.188 9.688-3.668 4.68-7.225 6.534-12.812 8.312-1.363 2.726-1.189 5.082-1.313 8.125-.514 7.163-1.884 12.072-7 17.188-6.135 3.852-11.48 5.79-18.687 4.687-6.85-2.177-10.727-6.103-14.313-12.25-1.653-6.613-1.495-12.922 1.903-18.926 3.22-4.164 7.44-7.167 12.41-8.824 3.322-.231 6.642-.381 9.969-.523 2.99-.234 2.99-.234 4.855-1.805 1.4-1.848 1.4-1.848 2.488-5.047 3.08-6.615 7.068-9.733 14.688-8.625Z"/>
<path fill="#C64435" d="M33 192h56c2 23 2 23 2 30l-1.441-.875C82.289 217.27 75.086 216.983 67 218c-7.832 2.676-13.028 7.84-16.75 15.125-1.259 2.62-2.33 5.114-3.25 7.875-3.563 1.188-3.563 1.188-7 2-1.899-1.899-1.602-5.174-1.902-7.719a2439.456 2439.456 0 0 1-1.035-8.781l-.514-4.324c-.522-4.392-1.035-8.784-1.549-13.176l-2-17Z"/>
<path fill="#F7B54B" d="M54.195 32.977c4.996 3.004 7.9 5.714 10.055 11.21 1.5 3.131 1.5 3.131 4.875 3.626 2.04.098 4.08.189 6.121.207 4.526.206 7.13.738 10.317 4.105 2.023 2.743 2.457 4.005 3 7.5C87.758 64.449 85.76 67.867 82 71c-3.706 1.235-6.098 1.455-10 1-3.252-2.106-5.928-4.755-8.45-7.684C60.698 61.894 57.596 62.772 54 63l-2 1c-6.456.547-9.707-.234-15-4-4.355-4.699-5.362-8.47-5.281-14.719.586-4.756 3.42-7.505 6.843-10.593 4.748-3.288 10.325-4.073 15.633-1.711Z"/>
<path fill="#D8D8D8" d="M357 32h15a5420.82 5420.82 0 0 1-3.1 7.462c-.905 2.182-1.802 4.367-2.693 6.554-2.1 5.121-4.22 10.145-6.84 15.023C350.9 77.331 351.747 94.061 352 112h-16c-3.95-30.236 7.694-53.388 21-80Z"/><path fill="#F6B54B" d="M262.688 145.125c4.356 2.466 7.043 5.337 9.312 9.875.396 5.848-.073 9.752-3 15-4.057 3.95-7.77 5.752-13.375 6.375-5.712-.59-9.177-2.774-13-7-3.211-4.693-3.245-8.782-2.625-14.375 4.854-9.709 12.526-12.975 22.688-9.875Z"/><path d="M392 304h16v16h-16v-16ZM368 272h16v16h-16v-16ZM392 240h16v16h-16v-16Z"/>
<path fill="#CBCBCB" d="M336 104h16v8h-16v-8Z"/>
<path fill="#3B86BF" d="M315 463c4.651 2.326 4.92 3.28 6.75 7.938l1.297 3.214C324 477 324 477 324 480h-11l2-17Z"/>
<path fill="#B93F31" d="M109 469h2v11h-7l5-11Z"/></svg>